<svg width="756" height="111" viewBox="0 0 756 111" fill="none" xmlns="http://www.w3.org/2000/svg">
<path fill-rule="evenodd" clip-rule="evenodd" d="M0 0L31.3031 4.17052C63.1969 8.34104 125.803 16.6821 189 30.7977C252.197 45.2341 314.803 65.7659 378 69.9364C441.197 74.1069 503.803 61.5954 567 57.7457C630.197 53.5751 692.803 57.7457 724.697 59.6705L756 61.5954V111H724.697C692.803 111 630.197 111 567 111C503.803 111 441.197 111 378 111C314.803 111 252.197 111 189 111C125.803 111 63.1969 111 31.3031 111H0V0Z" fill="#004969" fill-opacity="0.4"/>
<path fill-rule="evenodd" clip-rule="evenodd" d="M0 44.4L25.2 53.28C50.4 62.16 100.8 79.92 151.2 75.48C201.6 71.04 252 44.4 302.4 26.64C352.8 8.88 403.2 0 453.6 0C504 0 554.4 8.88 604.8 24.42C655.2 39.96 705.6 62.16 730.8 73.26L756 84.36V111H730.8C705.6 111 655.2 111 604.8 111C554.4 111 504 111 453.6 111C403.2 111 352.8 111 302.4 111C252 111 201.6 111 151.2 111C100.8 111 50.4 111 25.2 111H0V44.4Z" fill="#3086A4" fill-opacity="0.6"/>
</svg>
