<svg width="18" height="19" viewBox="0 0 18 19" fill="none" xmlns="http://www.w3.org/2000/svg">
<path d="M8.84985 17.4572C12.7158 17.4572 15.8499 14.056 15.8499 9.86033C15.8499 5.66468 12.7158 2.26343 8.84985 2.26343C4.98386 2.26343 1.84985 5.66468 1.84985 9.86033C1.84985 14.056 4.98386 17.4572 8.84985 17.4572Z" stroke="white" stroke-linecap="round" stroke-linejoin="round"/>
<path d="M6.81299 7.58137C6.97756 7.07365 7.30239 6.64552 7.72996 6.37281C8.15752 6.1001 8.66021 6.00041 9.14901 6.0914C9.63781 6.18239 10.0812 6.45819 10.4005 6.86995C10.7199 7.2817 10.8947 7.80284 10.894 8.34106C10.894 9.86044 8.79399 10.6201 8.79399 10.6201" stroke="white" stroke-linecap="round" stroke-linejoin="round"/>
<path d="M8.84985 13.6589H8.85652" stroke="white" stroke-linecap="round" stroke-linejoin="round"/>
</svg>
