<svg width="17" height="20" viewBox="0 0 17 20" fill="none" xmlns="http://www.w3.org/2000/svg">
<g clip-path="url(#clip0_239_565)">
<path d="M8.40762 12.1731C9.56742 12.1731 10.5076 11.1528 10.5076 9.89406C10.5076 8.63536 9.56742 7.61499 8.40762 7.61499C7.24782 7.61499 6.30762 8.63536 6.30762 9.89406C6.30762 11.1528 7.24782 12.1731 8.40762 12.1731Z" stroke="#F9D53F" stroke-linecap="round" stroke-linejoin="round"/>
<path d="M13.5875 12.1733C13.4943 12.4024 13.4665 12.6566 13.5077 12.903C13.5489 13.1494 13.6571 13.3768 13.8185 13.5559L13.8605 13.6015C13.9907 13.7426 14.0939 13.9102 14.1644 14.0946C14.2349 14.2791 14.2711 14.4768 14.2711 14.6764C14.2711 14.8761 14.2349 15.0738 14.1644 15.2583C14.0939 15.4427 13.9907 15.6103 13.8605 15.7514C13.7305 15.8927 13.5761 16.0047 13.4061 16.0812C13.2362 16.1577 13.054 16.197 12.87 16.197C12.686 16.197 12.5039 16.1577 12.3339 16.0812C12.1639 16.0047 12.0095 15.8927 11.8795 15.7514L11.8375 15.7058C11.6725 15.5307 11.463 15.4132 11.2359 15.3685C11.0089 15.3238 10.7746 15.354 10.5635 15.4551C10.3565 15.5514 10.1799 15.7113 10.0555 15.9151C9.93116 16.119 9.86442 16.3578 9.86352 16.6022V16.7314C9.86352 17.1344 9.71602 17.5208 9.45347 17.8058C9.19092 18.0907 8.83482 18.2508 8.46352 18.2508C8.09222 18.2508 7.73612 18.0907 7.47357 17.8058C7.21102 17.5208 7.06352 17.1344 7.06352 16.7314V16.663C7.0581 16.4116 6.9831 16.1677 6.84828 15.9631C6.71345 15.7585 6.52503 15.6027 6.30752 15.5159C6.09639 15.4148 5.86218 15.3846 5.63511 15.4293C5.40803 15.474 5.19849 15.5915 5.03352 15.7666L4.99152 15.8122C4.8615 15.9534 4.70709 16.0655 4.53714 16.142C4.36718 16.2184 4.185 16.2578 4.00102 16.2578C3.81704 16.2578 3.63486 16.2184 3.4649 16.142C3.29495 16.0655 3.14054 15.9534 3.01052 15.8122C2.88035 15.6711 2.77709 15.5035 2.70664 15.319C2.63618 15.1346 2.59992 14.9369 2.59992 14.7372C2.59992 14.5375 2.63618 14.3398 2.70664 14.1554C2.77709 13.9709 2.88035 13.8034 3.01052 13.6622L3.05252 13.6167C3.21389 13.4376 3.32215 13.2102 3.36332 12.9638C3.4045 12.7173 3.3767 12.4632 3.28352 12.234C3.19479 12.0093 3.04745 11.8177 2.85965 11.6827C2.67184 11.5478 2.45177 11.4753 2.22652 11.4743H2.10752C1.73622 11.4743 1.38012 11.3143 1.11757 11.0293C0.855019 10.7444 0.70752 10.3579 0.70752 9.95496C0.70752 9.552 0.855019 9.16554 1.11757 8.8806C1.38012 8.59566 1.73622 8.43558 2.10752 8.43558H2.17052C2.40222 8.4297 2.62692 8.34831 2.81543 8.20199C3.00393 8.05566 3.14752 7.85118 3.22752 7.61512C3.3207 7.38598 3.3485 7.13181 3.30732 6.88537C3.26615 6.63893 3.1579 6.41152 2.99652 6.23248L2.95452 6.1869C2.82435 6.04579 2.72109 5.87822 2.65064 5.69377C2.58018 5.50932 2.54392 5.31161 2.54392 5.11194C2.54392 4.91227 2.58018 4.71456 2.65064 4.53011C2.72109 4.34566 2.82435 4.17809 2.95452 4.03698C3.08454 3.89571 3.23895 3.78364 3.4089 3.70718C3.57886 3.63072 3.76104 3.59136 3.94502 3.59136C4.129 3.59136 4.31118 3.63072 4.48114 3.70718C4.65109 3.78364 4.8055 3.89571 4.93552 4.03698L4.97752 4.08256C5.14249 4.2577 5.35203 4.37518 5.57911 4.41986C5.80618 4.46455 6.04039 4.43438 6.25152 4.33326H6.30752C6.51456 4.23696 6.69113 4.07706 6.8155 3.87324C6.93988 3.66942 7.00662 3.43058 7.00752 3.18612V3.05698C7.00752 2.65401 7.15502 2.26755 7.41757 1.98261C7.68012 1.69767 8.03622 1.5376 8.40752 1.5376C8.77882 1.5376 9.13492 1.69767 9.39747 1.98261C9.66002 2.26755 9.80752 2.65401 9.80752 3.05698V3.12535C9.80842 3.36981 9.87516 3.60865 9.99953 3.81246C10.1239 4.01628 10.3005 4.17618 10.5075 4.27248C10.7186 4.37361 10.9529 4.40377 11.1799 4.35909C11.407 4.31441 11.6165 4.19692 11.7815 4.02178L11.8235 3.9762C11.9535 3.83494 12.1079 3.72287 12.2779 3.64641C12.4479 3.56994 12.63 3.53059 12.814 3.53059C12.998 3.53059 13.1802 3.56994 13.3501 3.64641C13.5201 3.72287 13.6745 3.83494 13.8045 3.9762C13.9347 4.11731 14.0379 4.28488 14.1084 4.46933C14.1789 4.65378 14.2151 4.85149 14.2151 5.05116C14.2151 5.25083 14.1789 5.44855 14.1084 5.633C14.0379 5.81744 13.9347 5.98501 13.8045 6.12612L13.7625 6.17171C13.6011 6.35075 13.4929 6.57815 13.4517 6.82459C13.4105 7.07103 13.4383 7.32521 13.5315 7.55434V7.61512C13.6203 7.83981 13.7676 8.03144 13.9554 8.16642C14.1432 8.3014 14.3633 8.37383 14.5885 8.37481H14.7075C15.0788 8.37481 15.4349 8.53488 15.6975 8.81982C15.96 9.10476 16.1075 9.49122 16.1075 9.89419C16.1075 10.2972 15.96 10.6836 15.6975 10.9685C15.4349 11.2535 15.0788 11.4136 14.7075 11.4136H14.6445C14.4193 11.4145 14.1992 11.487 14.0114 11.622C13.8236 11.7569 13.6763 11.9486 13.5875 12.1733V12.1733Z" stroke="#F9D53F" stroke-linecap="round" stroke-linejoin="round"/>
</g>
<defs>
<clipPath id="clip0_239_565">
<rect width="16.8" height="18.2326" fill="white" transform="translate(0.00756836 0.777832)"/>
</clipPath>
</defs>
</svg>
