<svg width="1513" height="111" viewBox="0 0 1513 111" fill="none" xmlns="http://www.w3.org/2000/svg">
<path fill-rule="evenodd" clip-rule="evenodd" d="M0 0L62.6477 4.17052C126.477 8.34104 251.773 16.6821 378.25 30.7977C504.727 45.2341 630.023 65.7659 756.5 69.9364C882.977 74.1069 1008.27 61.5954 1134.75 57.7457C1261.23 53.5751 1386.52 57.7457 1450.35 59.6705L1513 61.5954V111H1450.35C1386.52 111 1261.23 111 1134.75 111C1008.27 111 882.977 111 756.5 111C630.023 111 504.727 111 378.25 111C251.773 111 126.477 111 62.6477 111H0V0Z" fill="#004969" fill-opacity="0.4"/>
<path fill-rule="evenodd" clip-rule="evenodd" d="M0 44.4L50.4333 53.28C100.867 62.16 201.733 79.92 302.6 75.48C403.467 71.04 504.333 44.4 605.2 26.64C706.067 8.88 806.933 0 907.8 0C1008.67 0 1109.53 8.88 1210.4 24.42C1311.27 39.96 1412.13 62.16 1462.57 73.26L1513 84.36V111H1462.57C1412.13 111 1311.27 111 1210.4 111C1109.53 111 1008.67 111 907.8 111C806.933 111 706.067 111 605.2 111C504.333 111 403.467 111 302.6 111C201.733 111 100.867 111 50.4333 111H0V44.4Z" fill="#3086A4" fill-opacity="0.6"/>
</svg>
